inDegrees=yes
name=ik_appendData_SPIN
DataType=double
version=3
OpenSimVersion=4.5
endheader
time	pelvis_tilt	pelvis_list	pelvis_rotation	pelvis_tx	pelvis_ty	pelvis_tz	hip_flexion_r	hip_adduction_r	hip_rotation_r	knee_angle_r	knee_angle_r_beta	ankle_angle_r	subtalar_angle_r	mtp_angle_r	hip_flexion_l	hip_adduction_l	hip_rotation_l	knee_angle_l	knee_angle_l_beta	ankle_angle_l	subtalar_angle_l	mtp_angle_l	lumbar_extension	lumbar_bending	lumbar_rotation	arm_flex_r	arm_add_r	arm_rot_r	elbow_flex_r	pro_sup_r	wrist_flex_r	wrist_dev_r	arm_flex_l	arm_add_l	arm_rot_l	elbow_flex_l	pro_sup_l	wrist_flex_l	wrist_dev_l
75	-0.9930836091496005	89.91020273899154	-5.973039819922129	0	0.9399999999999999	0	44.80526545678954	-10.00693130039356	0	59.97186427868031	1.046706490222146	-5.000630880428749	0	0	44.80526545678954	-10.00693130039356	0	59.97186427868031	1.046706490222146	-5.000630880428749	0	0	1.148171399265002	0.1470134882397326	5.841539239596952	0	-13.25209708693498	0	75.55783339522516	44.98611899057706	0	0	-4.507418446381	10.89507818355306	-4.220476919731695	1.464983181004992	44.98611899057706	0	0
76	-0.9779873119263381	89.9101583196431	-5.9668933676547	0	0.9399999999999999	0	44.80670569215641	-10.00681217991899	0	59.9720738162737	1.046710147343057	-5.000618045460245	0	0	44.80670569215641	-10.00681217991899	0	59.9720738162737	1.046710147343057	-5.000618045460245	0	0	1.143249224744786	0.1515035225396147	5.838483449424649	0	-13.26003232471752	0	75.55370895472471	44.98632399917149	0	0	-4.156799548554298	16.2730804695627	-3.74953743682991	0.3368807359804668	44.98632399917149	0	0
77	-0.9843754878816317	89.91021192439109	-5.96518943692887	0	0.9399999999999999	0	44.80834239464539	-10.00667828031262	0	59.97231215392347	1.046714307119777	-5.000603666696377	0	0	44.80834239464539	-10.00667828031262	0	59.97231215392347	1.046714307119777	-5.000603666696377	0	0	1.143526233953323	0.1385991701900192	5.813669613627116	0	-13.26908059769189	0	75.54902188841673	44.98655504904216	0	0	-4.389495279843984	21.64072583365542	-2.641660730617798	0.1058585869387471	44.98655504904216	0	0
78	-1.002567988100806	89.91006203441952	-5.940936141077413	0	0.9399999999999999	0	44.81018057666387	-10.00652808017742	0	59.97257661451178	1.046718922827785	-5.000587589098704	0	0	44.81018057666387	-10.00652808017742	0	59.97257661451178	1.046718922827785	-5.000587589098704	0	0	1.13805463955994	0.1433952255211177	5.800951199546269	0	-13.27921121951116	0	75.54375783763525	44.98681464806578	0	0	-6.038362235803998	27.19382005540851	-1.665558121378912	0.1328228987431541	44.98681464806578	0	0
79	-0.9927767377375217	89.91116517987632	-5.950667696964456	0	0.9399999999999999	0	44.81148804539453	-10.00641509208241	0	59.97276482251773	1.046722207677167	-5.000575202529658	0	0	44.81148804539453	-10.00641509208241	0	59.97276482251773	1.046722207677167	-5.000575202529658	0	0	1.126347353638619	0.13916408330408	5.772844465492513	0	-13.2863537504814	0	75.54001359927999	44.98700669754738	0	0	-6.254200672934652	33.23297734151049	0.4111121463820218	0.04771881708503074	44.98700669754738	0	0
80	-0.9531180773185602	89.91036399037885	-5.993204737562995	0	0.9399999999999999	0	44.81293789097907	-10.00629128182534	0	59.97297323679422	1.0467258451925	-5.000561693889495	0	0	44.81293789097907	-10.00629128182534	0	59.97297323679422	1.0467258451925	-5.000561693889495	0	0	1.137014535927873	0.1364813626988778	5.807288961494974	0	-13.29429363127584	0	75.53586163360991	44.98721785025226	0	0	-5.737114869248503	39.92193863436763	1.836753809743768	0.02633136877207283	44.98721785025226	0	0
81	-0.940753783456556	89.91075751831953	-6.002767761934575	0	0.9399999999999999	0	44.81368334521851	-10.00622705152996	0	59.97307937999743	1.046727697740875	-5.000554673667553	0	0	44.81368334521851	-10.00622705152996	0	59.97307937999743	1.046727697740875	-5.000554673667553	0	0	1.136798970852597	0.1361082470046452	5.797659484565517	0	-13.29835869288179	0	75.53372685297531	44.9873272121084	0	0	-5.681843199806807	44.75779860534913	2.591780598971507	0.01974401375023123	44.9873272121084	0	0
82	-1.099750550157259	89.91024858367484	-5.885888380289262	0	0.9399999999999999	0	44.81908613340636	-10.00568207773029	0	59.97370533498172	1.04673862271632	-5.000494632725077	0	0	44.81908613340636	-10.00568207773029	0	59.97370533498172	1.04673862271632	-5.000494632725077	0	0	1.158414148078755	0.1412463080290808	5.847297882940304	0	-13.32457654852834	0	75.51825453643922	44.98823947856921	0	0	-4.597647648667252	48.04065810593027	2.654035529919887	0.01511758271600532	44.98823947856921	0	0
